<?xml version="1.0" encoding="UTF-8" standalone="no"?>
<!DOCTYPE svg PUBLIC "-//W3C//DTD SVG 1.1//EN"
 "http://www.w3.org/Graphics/SVG/1.1/DTD/svg11.dtd">
<!-- Generated by graphviz version 2.43.0 (0)
 -->
<!-- Title: BFS Pages: 1 -->
<svg width="662pt" height="479pt"
 viewBox="0.00 0.00 662.08 479.00" xmlns="http://www.w3.org/2000/svg" xmlns:xlink="http://www.w3.org/1999/xlink">
<g id="graph0" class="graph" transform="scale(1 1) rotate(0) translate(4 475)">
<title>BFS</title>
<polygon fill="white" stroke="transparent" points="-4,4 -4,-475 658.08,-475 658.08,4 -4,4"/>
<!-- Fifth Vertex ID -->
<g id="node1" class="node">
<title>Fifth Vertex ID</title>
<ellipse fill="none" stroke="red" cx="317.54" cy="-453" rx="79.89" ry="18"/>
<text text-anchor="middle" x="317.54" y="-449.3" font-family="Times,serif" font-size="14.00">Fifth Vertex ID</text>
</g>
<!-- Ninth Vertex ID -->
<g id="node8" class="node">
<title>Ninth Vertex ID</title>
<ellipse fill="none" stroke="black" cx="318.54" cy="-366" rx="83.69" ry="18"/>
<text text-anchor="middle" x="318.54" y="-362.3" font-family="Times,serif" font-size="14.00">Ninth Vertex ID</text>
</g>
<!-- Fifth Vertex ID&#45;&gt;Ninth Vertex ID -->
<g id="edge13" class="edge">
<title>Fifth Vertex ID&#45;&gt;Ninth Vertex ID</title>
<path fill="none" stroke="black" d="M307.99,-435.05C303.71,-425.44 300.11,-413.16 302.54,-402 303.17,-399.12 304.05,-396.2 305.09,-393.33"/>
<polygon fill="black" stroke="black" points="308.39,-394.51 309.03,-383.94 301.93,-391.8 308.39,-394.51"/>
<text text-anchor="middle" x="307.54" y="-405.8" font-family="Times,serif" font-size="14.00">5</text>
</g>
<!-- Seventh Vertex ID -->
<g id="node10" class="node">
<title>Seventh Vertex ID</title>
<ellipse fill="none" stroke="red" cx="95.54" cy="-192" rx="95.58" ry="18"/>
<text text-anchor="middle" x="95.54" y="-188.3" font-family="Times,serif" font-size="14.00">Seventh Vertex ID</text>
</g>
<!-- Fifth Vertex ID&#45;&gt;Seventh Vertex ID -->
<g id="edge9" class="edge">
<title>Fifth Vertex ID&#45;&gt;Seventh Vertex ID</title>
<path fill="none" stroke="red" d="M289.78,-435.94C249.45,-411.21 174.97,-359.99 133.54,-297 117.93,-273.26 107.68,-242.26 101.8,-220.3"/>
<polygon fill="red" stroke="red" points="105.12,-219.15 99.26,-210.32 98.33,-220.88 105.12,-219.15"/>
<text text-anchor="middle" x="163.54" y="-318.8" font-family="Times,serif" font-size="14.00">5</text>
</g>
<!-- First Vertex ID -->
<g id="node11" class="node">
<title>First Vertex ID</title>
<ellipse fill="none" stroke="red" cx="572.54" cy="-105" rx="79.89" ry="18"/>
<text text-anchor="middle" x="572.54" y="-101.3" font-family="Times,serif" font-size="14.00">First Vertex ID</text>
</g>
<!-- Fifth Vertex ID&#45;&gt;First Vertex ID -->
<g id="edge6" class="edge">
<title>Fifth Vertex ID&#45;&gt;First Vertex ID</title>
<path fill="none" stroke="black" d="M374.31,-440.19C454.57,-422.7 591.54,-389.54 591.54,-367 591.54,-367 591.54,-367 591.54,-191 591.54,-171.09 586.52,-149.17 581.63,-132.58"/>
<polygon fill="black" stroke="black" points="584.97,-131.52 578.66,-123.01 578.28,-133.6 584.97,-131.52"/>
<text text-anchor="middle" x="596.54" y="-275.3" font-family="Times,serif" font-size="14.00">4</text>
</g>
<!-- Sixth Vertex ID -->
<g id="node2" class="node">
<title>Sixth Vertex ID</title>
<ellipse fill="none" stroke="red" cx="299.54" cy="-105" rx="81.79" ry="18"/>
<text text-anchor="middle" x="299.54" y="-101.3" font-family="Times,serif" font-size="14.00">Sixth Vertex ID</text>
</g>
<!-- Fourth Vertex ID -->
<g id="node5" class="node">
<title>Fourth Vertex ID</title>
<ellipse fill="none" stroke="red" cx="298.54" cy="-192" rx="89.08" ry="18"/>
<text text-anchor="middle" x="298.54" y="-188.3" font-family="Times,serif" font-size="14.00">Fourth Vertex ID</text>
</g>
<!-- Sixth Vertex ID&#45;&gt;Fourth Vertex ID -->
<g id="edge22" class="edge">
<title>Sixth Vertex ID&#45;&gt;Fourth Vertex ID</title>
<path fill="none" stroke="red" d="M299.34,-123.18C299.2,-134.81 299.02,-150.42 298.86,-163.73"/>
<polygon fill="red" stroke="red" points="295.36,-163.76 298.74,-173.8 302.36,-163.84 295.36,-163.76"/>
<text text-anchor="middle" x="304.54" y="-144.8" font-family="Times,serif" font-size="14.00">5</text>
</g>
<!-- Third Vertex ID -->
<g id="node3" class="node">
<title>Third Vertex ID</title>
<ellipse fill="none" stroke="black" cx="571.54" cy="-18" rx="82.59" ry="18"/>
<text text-anchor="middle" x="571.54" y="-14.3" font-family="Times,serif" font-size="14.00">Third Vertex ID</text>
</g>
<!-- Third Vertex ID&#45;&gt;First Vertex ID -->
<g id="edge20" class="edge">
<title>Third Vertex ID&#45;&gt;First Vertex ID</title>
<path fill="none" stroke="black" d="M571.74,-36.18C571.88,-47.81 572.06,-63.42 572.22,-76.73"/>
<polygon fill="black" stroke="black" points="568.72,-76.84 572.34,-86.8 575.72,-76.76 568.72,-76.84"/>
<text text-anchor="middle" x="576.54" y="-57.8" font-family="Times,serif" font-size="14.00">5</text>
</g>
<!-- Eighth Vertex ID -->
<g id="node4" class="node">
<title>Eighth Vertex ID</title>
<ellipse fill="none" stroke="black" cx="231.54" cy="-279" rx="89.08" ry="18"/>
<text text-anchor="middle" x="231.54" y="-275.3" font-family="Times,serif" font-size="14.00">Eighth Vertex ID</text>
</g>
<!-- Eighth Vertex ID&#45;&gt;Ninth Vertex ID -->
<g id="edge12" class="edge">
<title>Eighth Vertex ID&#45;&gt;Ninth Vertex ID</title>
<path fill="none" stroke="black" d="M252.56,-296.52C259.43,-302.18 266.98,-308.68 273.54,-315 281.83,-322.98 290.4,-332.22 297.82,-340.57"/>
<polygon fill="black" stroke="black" points="295.3,-343.01 304.52,-348.24 300.57,-338.41 295.3,-343.01"/>
<text text-anchor="middle" x="293.54" y="-318.8" font-family="Times,serif" font-size="14.00">5</text>
</g>
<!-- Eighth Vertex ID&#45;&gt;Seventh Vertex ID -->
<g id="edge4" class="edge">
<title>Eighth Vertex ID&#45;&gt;Seventh Vertex ID</title>
<path fill="none" stroke="black" d="M219.41,-260.8C211.16,-250.15 199.43,-236.87 186.54,-228 177.05,-221.47 166.17,-215.94 155.32,-211.34"/>
<polygon fill="black" stroke="black" points="156.4,-208 145.82,-207.53 153.8,-214.5 156.4,-208"/>
<text text-anchor="middle" x="208.54" y="-231.8" font-family="Times,serif" font-size="14.00">5</text>
</g>
<!-- Fourth Vertex ID&#45;&gt;Sixth Vertex ID -->
<g id="edge21" class="edge">
<title>Fourth Vertex ID&#45;&gt;Sixth Vertex ID</title>
<path fill="none" stroke="black" d="M288.99,-174.05C284.71,-164.44 281.11,-152.16 283.54,-141 284.17,-138.12 285.05,-135.2 286.09,-132.33"/>
<polygon fill="black" stroke="black" points="289.39,-133.51 290.03,-122.94 282.93,-130.8 289.39,-133.51"/>
<text text-anchor="middle" x="288.54" y="-144.8" font-family="Times,serif" font-size="14.00">5</text>
</g>
<!-- Second Vertex ID -->
<g id="node7" class="node">
<title>Second Vertex ID</title>
<ellipse fill="none" stroke="red" cx="429.54" cy="-279" rx="90.98" ry="18"/>
<text text-anchor="middle" x="429.54" y="-275.3" font-family="Times,serif" font-size="14.00">Second Vertex ID</text>
</g>
<!-- Fourth Vertex ID&#45;&gt;Second Vertex ID -->
<g id="edge2" class="edge">
<title>Fourth Vertex ID&#45;&gt;Second Vertex ID</title>
<path fill="none" stroke="red" d="M323.72,-209.34C344.18,-222.61 373.22,-241.46 395.71,-256.05"/>
<polygon fill="red" stroke="red" points="393.99,-259.1 404.28,-261.61 397.8,-253.23 393.99,-259.1"/>
<text text-anchor="middle" x="377.54" y="-231.8" font-family="Times,serif" font-size="14.00">3</text>
</g>
<!-- Zero Vertex ID -->
<g id="node6" class="node">
<title>Zero Vertex ID</title>
<ellipse fill="none" stroke="red" cx="484.54" cy="-192" rx="79.09" ry="18"/>
<text text-anchor="middle" x="484.54" y="-188.3" font-family="Times,serif" font-size="14.00">Zero Vertex ID</text>
</g>
<!-- Zero Vertex ID&#45;&gt;Second Vertex ID -->
<g id="edge17" class="edge">
<title>Zero Vertex ID&#45;&gt;Second Vertex ID</title>
<path fill="none" stroke="black" d="M473.62,-209.89C465.79,-221.99 455.1,-238.51 446.21,-252.25"/>
<polygon fill="black" stroke="black" points="443.17,-250.5 440.67,-260.8 449.04,-254.3 443.17,-250.5"/>
<text text-anchor="middle" x="464.54" y="-231.8" font-family="Times,serif" font-size="14.00">1</text>
</g>
<!-- Zero Vertex ID&#45;&gt;First Vertex ID -->
<g id="edge7" class="edge">
<title>Zero Vertex ID&#45;&gt;First Vertex ID</title>
<path fill="none" stroke="red" d="M495.67,-173.73C502.69,-163.56 512.32,-150.82 522.54,-141 527.25,-136.47 532.6,-132.09 538,-128.05"/>
<polygon fill="red" stroke="red" points="540.34,-130.68 546.44,-122.01 536.27,-124.98 540.34,-130.68"/>
<text text-anchor="middle" x="527.54" y="-144.8" font-family="Times,serif" font-size="14.00">2</text>
</g>
<!-- Second Vertex ID&#45;&gt;Fourth Vertex ID -->
<g id="edge1" class="edge">
<title>Second Vertex ID&#45;&gt;Fourth Vertex ID</title>
<path fill="none" stroke="black" d="M378.31,-264.1C364.29,-258.86 349.64,-251.93 337.54,-243 328.64,-236.43 320.72,-227.31 314.38,-218.66"/>
<polygon fill="black" stroke="black" points="317.15,-216.51 308.59,-210.27 311.39,-220.49 317.15,-216.51"/>
<text text-anchor="middle" x="342.54" y="-231.8" font-family="Times,serif" font-size="14.00">3</text>
</g>
<!-- Second Vertex ID&#45;&gt;Zero Vertex ID -->
<g id="edge18" class="edge">
<title>Second Vertex ID&#45;&gt;Zero Vertex ID</title>
<path fill="none" stroke="red" d="M430.03,-260.7C431.01,-250.53 433.49,-237.79 439.54,-228 442.27,-223.59 445.76,-219.52 449.6,-215.83"/>
<polygon fill="red" stroke="red" points="451.98,-218.4 457.28,-209.23 447.42,-213.09 451.98,-218.4"/>
<text text-anchor="middle" x="444.54" y="-231.8" font-family="Times,serif" font-size="14.00">1</text>
</g>
<!-- Second Vertex ID&#45;&gt;Ninth Vertex ID -->
<g id="edge16" class="edge">
<title>Second Vertex ID&#45;&gt;Ninth Vertex ID</title>
<path fill="none" stroke="black" d="M407.93,-296.55C390.91,-309.58 366.99,-327.9 348.18,-342.3"/>
<polygon fill="black" stroke="black" points="346.02,-339.55 340.21,-348.41 350.27,-345.11 346.02,-339.55"/>
<text text-anchor="middle" x="386.54" y="-318.8" font-family="Times,serif" font-size="14.00">5</text>
</g>
<!-- Ninth Vertex ID&#45;&gt;Fifth Vertex ID -->
<g id="edge14" class="edge">
<title>Ninth Vertex ID&#45;&gt;Fifth Vertex ID</title>
<path fill="none" stroke="black" d="M318.34,-384.18C318.2,-395.81 318.02,-411.42 317.86,-424.73"/>
<polygon fill="black" stroke="black" points="314.36,-424.76 317.74,-434.8 321.36,-424.84 314.36,-424.76"/>
<text text-anchor="middle" x="323.54" y="-405.8" font-family="Times,serif" font-size="14.00">5</text>
</g>
<!-- Ninth Vertex ID&#45;&gt;Eighth Vertex ID -->
<g id="edge11" class="edge">
<title>Ninth Vertex ID&#45;&gt;Eighth Vertex ID</title>
<path fill="none" stroke="black" d="M288.54,-349.19C279.89,-343.8 270.83,-337.27 263.54,-330 256.47,-322.94 250.16,-314.06 245.06,-305.75"/>
<polygon fill="black" stroke="black" points="248.06,-303.95 240.01,-297.07 242.01,-307.47 248.06,-303.95"/>
<text text-anchor="middle" x="268.54" y="-318.8" font-family="Times,serif" font-size="14.00">5</text>
</g>
<!-- Ninth Vertex ID&#45;&gt;Second Vertex ID -->
<g id="edge15" class="edge">
<title>Ninth Vertex ID&#45;&gt;Second Vertex ID</title>
<path fill="none" stroke="black" d="M325.53,-347.84C330.59,-337.22 338.34,-323.94 348.54,-315 355.81,-308.63 364.42,-303.28 373.26,-298.83"/>
<polygon fill="black" stroke="black" points="374.93,-301.91 382.51,-294.51 371.97,-295.56 374.93,-301.91"/>
<text text-anchor="middle" x="353.54" y="-318.8" font-family="Times,serif" font-size="14.00">5</text>
</g>
<!-- Tenth Vertex ID -->
<g id="node9" class="node">
<title>Tenth Vertex ID</title>
<ellipse fill="none" stroke="black" cx="499.54" cy="-453" rx="83.69" ry="18"/>
<text text-anchor="middle" x="499.54" y="-449.3" font-family="Times,serif" font-size="14.00">Tenth Vertex ID</text>
</g>
<!-- Seventh Vertex ID&#45;&gt;Fifth Vertex ID -->
<g id="edge10" class="edge">
<title>Seventh Vertex ID&#45;&gt;Fifth Vertex ID</title>
<path fill="none" stroke="black" d="M96.83,-210.18C97.66,-219.85 98.9,-232.13 100.54,-243 111.11,-312.77 119.93,-338.12 173.54,-384 199.77,-406.45 234.68,-423.18 263.56,-434.43"/>
<polygon fill="black" stroke="black" points="262.5,-437.77 273.1,-438.03 264.98,-431.22 262.5,-437.77"/>
<text text-anchor="middle" x="129.54" y="-318.8" font-family="Times,serif" font-size="14.00">5</text>
</g>
<!-- Seventh Vertex ID&#45;&gt;Eighth Vertex ID -->
<g id="edge3" class="edge">
<title>Seventh Vertex ID&#45;&gt;Eighth Vertex ID</title>
<path fill="none" stroke="black" d="M121.68,-209.34C143.02,-222.67 173.34,-241.62 196.73,-256.24"/>
<polygon fill="black" stroke="black" points="194.98,-259.28 205.32,-261.61 198.69,-253.34 194.98,-259.28"/>
<text text-anchor="middle" x="177.54" y="-231.8" font-family="Times,serif" font-size="14.00">5</text>
</g>
<!-- First Vertex ID&#45;&gt;Fifth Vertex ID -->
<g id="edge5" class="edge">
<title>First Vertex ID&#45;&gt;Fifth Vertex ID</title>
<path fill="none" stroke="red" d="M595.64,-122.4C614.32,-137.77 637.54,-162.58 637.54,-191 637.54,-367 637.54,-367 637.54,-367 637.54,-393.38 628.09,-403.3 605.54,-417 567.59,-440.05 450.51,-428.83 406.54,-435 399.37,-436.01 391.89,-437.2 384.46,-438.49"/>
<polygon fill="red" stroke="red" points="383.61,-435.08 374.38,-440.28 384.84,-441.97 383.61,-435.08"/>
<text text-anchor="middle" x="642.54" y="-275.3" font-family="Times,serif" font-size="14.00">4</text>
</g>
<!-- First Vertex ID&#45;&gt;Third Vertex ID -->
<g id="edge19" class="edge">
<title>First Vertex ID&#45;&gt;Third Vertex ID</title>
<path fill="none" stroke="black" d="M563.03,-87.06C560.39,-81.49 557.88,-75.14 556.54,-69 554.85,-61.24 556.08,-52.94 558.42,-45.37"/>
<polygon fill="black" stroke="black" points="561.71,-46.55 561.99,-35.95 555.17,-44.06 561.71,-46.55"/>
<text text-anchor="middle" x="561.54" y="-57.8" font-family="Times,serif" font-size="14.00">5</text>
</g>
<!-- First Vertex ID&#45;&gt;Zero Vertex ID -->
<g id="edge8" class="edge">
<title>First Vertex ID&#45;&gt;Zero Vertex ID</title>
<path fill="none" stroke="black" d="M560.6,-123.16C553.14,-133.27 542.99,-146.01 532.54,-156 527.94,-160.4 522.77,-164.71 517.58,-168.72"/>
<polygon fill="black" stroke="black" points="515.4,-165.97 509.46,-174.74 519.58,-171.59 515.4,-165.97"/>
<text text-anchor="middle" x="550.54" y="-144.8" font-family="Times,serif" font-size="14.00">2</text>
</g>
</g>
</svg>
